<svg width="56" height="56" viewBox="0 0 56 56" fill="none" xmlns="http://www.w3.org/2000/svg">
<path d="M48.6098 8.34326L31.0977 21.3992L34.3542 13.7049L48.6098 8.34326Z" fill="#E17726" stroke="#E17726" stroke-width="0.25" stroke-linecap="round" stroke-linejoin="round"/>
<path d="M8.2168 8.34326L25.573 21.521L22.4725 13.7049L8.2168 8.34326Z" fill="#E27625" stroke="#E27625" stroke-width="0.25" stroke-linecap="round" stroke-linejoin="round"/>
<path d="M42.304 38.6157L37.6445 45.7878L47.6217 48.5557L50.4799 38.7725L42.304 38.6157Z" fill="#E27625" stroke="#E27625" stroke-width="0.25" stroke-linecap="round" stroke-linejoin="round"/>
<path d="M6.36328 38.7725L9.204 48.5557L19.1639 45.7878L14.5217 38.6157L6.36328 38.7725Z" fill="#E27625" stroke="#E27625" stroke-width="0.25" stroke-linecap="round" stroke-linejoin="round"/>
<path d="M18.6269 26.5L15.8555 30.7127L25.7287 31.1653L25.3997 20.4595L18.6269 26.5Z" fill="#E27625" stroke="#E27625" stroke-width="0.25" stroke-linecap="round" stroke-linejoin="round"/>
<path d="M38.1994 26.4998L31.3229 20.3374L31.0977 31.1651L40.9709 30.7125L38.1994 26.4998Z" fill="#E27625" stroke="#E27625" stroke-width="0.25" stroke-linecap="round" stroke-linejoin="round"/>
<path d="M19.1641 45.7875L25.1399 42.8804L19.9955 38.8418L19.1641 45.7875Z" fill="#E27625" stroke="#E27625" stroke-width="0.25" stroke-linecap="round" stroke-linejoin="round"/>
<path d="M31.6875 42.8804L37.646 45.7875L36.8319 38.8418L31.6875 42.8804Z" fill="#E27625" stroke="#E27625" stroke-width="0.25" stroke-linecap="round" stroke-linejoin="round"/>
<path d="M37.646 45.7879L31.6875 42.8809L32.1724 46.7802L32.1204 48.4339L37.646 45.7879Z" fill="#D5BFB2" stroke="#D5BFB2" stroke-width="0.25" stroke-linecap="round" stroke-linejoin="round"/>
<path d="M19.1641 45.7879L24.707 48.4339L24.6723 46.7802L25.1399 42.8809L19.1641 45.7879Z" fill="#D5BFB2" stroke="#D5BFB2" stroke-width="0.25" stroke-linecap="round" stroke-linejoin="round"/>
<path d="M24.8095 36.2657L19.8555 34.8035L23.3544 33.1846L24.8095 36.2657Z" fill="#233447" stroke="#233447" stroke-width="0.25" stroke-linecap="round" stroke-linejoin="round"/>
<path d="M32.0156 36.2657L33.4707 33.1846L36.987 34.8035L32.0156 36.2657Z" fill="#233447" stroke="#233447" stroke-width="0.25" stroke-linecap="round" stroke-linejoin="round"/>
<path d="M19.1636 45.7878L20.0298 38.6157L14.5215 38.7725L19.1636 45.7878Z" fill="#CC6228" stroke="#CC6228" stroke-width="0.25" stroke-linecap="round" stroke-linejoin="round"/>
<path d="M36.7969 38.6157L37.6457 45.7878L42.3051 38.7725L36.7969 38.6157Z" fill="#CC6228" stroke="#CC6228" stroke-width="0.25" stroke-linecap="round" stroke-linejoin="round"/>
<path d="M40.9709 30.7124L31.0977 31.165L32.0157 36.2656L33.4707 33.1843L36.987 34.8033L40.9709 30.7124Z" fill="#CC6228" stroke="#CC6228" stroke-width="0.25" stroke-linecap="round" stroke-linejoin="round"/>
<path d="M19.8567 34.8033L23.3557 33.1843L24.8107 36.2656L25.7287 31.165L15.8555 30.7124L19.8567 34.8033Z" fill="#CC6228" stroke="#CC6228" stroke-width="0.25" stroke-linecap="round" stroke-linejoin="round"/>
<path d="M15.8555 30.7124L19.9953 38.8419L19.8567 34.8033L15.8555 30.7124Z" fill="#E27525" stroke="#E27525" stroke-width="0.25" stroke-linecap="round" stroke-linejoin="round"/>
<path d="M36.9879 34.8033L36.832 38.8419L40.9719 30.7124L36.9879 34.8033Z" fill="#E27525" stroke="#E27525" stroke-width="0.25" stroke-linecap="round" stroke-linejoin="round"/>
<path d="M25.7287 31.165L24.8105 36.2657L25.9711 42.2887L26.231 34.3507L25.7287 31.165Z" fill="#E27525" stroke="#E27525" stroke-width="0.25" stroke-linecap="round" stroke-linejoin="round"/>
<path d="M31.0983 31.165L30.6133 34.3334L30.8558 42.2887L32.0163 36.2657L31.0983 31.165Z" fill="#E27525" stroke="#E27525" stroke-width="0.25" stroke-linecap="round" stroke-linejoin="round"/>
<path d="M32.016 36.2655L30.8555 42.2886L31.6869 42.8805L36.8315 38.8419L36.9873 34.8032L32.016 36.2655Z" fill="#F5841F" stroke="#F5841F" stroke-width="0.25" stroke-linecap="round" stroke-linejoin="round"/>
<path d="M19.8555 34.8032L19.9941 38.8419L25.1385 42.8805L25.97 42.2886L24.8095 36.2655L19.8555 34.8032Z" fill="#F5841F" stroke="#F5841F" stroke-width="0.25" stroke-linecap="round" stroke-linejoin="round"/>
<path d="M32.1206 48.4336L32.1725 46.7799L31.7222 46.3968H25.1054L24.6723 46.7799L24.707 48.4336L19.1641 45.7876L21.1041 47.3891L25.0361 50.1222H31.7741L35.7234 47.3891L37.6461 45.7876L32.1206 48.4336Z" fill="#C0AC9D" stroke="#C0AC9D" stroke-width="0.25" stroke-linecap="round" stroke-linejoin="round"/>
<path d="M31.6871 42.8804L30.8556 42.2886H25.9709L25.1396 42.8804L24.6719 46.7798L25.1049 46.3968H31.7217L32.1721 46.7798L31.6871 42.8804Z" fill="#161616" stroke="#161616" stroke-width="0.25" stroke-linecap="round" stroke-linejoin="round"/>
<path d="M49.3554 22.2521L50.8278 15.0453L48.6106 8.34326L31.6875 20.964L38.2003 26.4996L47.398 29.1979L49.4247 26.8131L48.5414 26.1689L49.9443 24.8808L48.8704 24.0452L50.2735 22.9659L49.3554 22.2521Z" fill="#763E1A" stroke="#763E1A" stroke-width="0.25" stroke-linecap="round" stroke-linejoin="round"/>
<path d="M6 15.0453L7.48965 22.2521L6.53697 22.9659L7.95733 24.0452L6.8834 24.8808L8.28644 26.1689L7.40304 26.8131L9.42967 29.1979L18.6275 26.4996L25.1403 20.964L8.21716 8.34326L6 15.0453Z" fill="#763E1A" stroke="#763E1A" stroke-width="0.25" stroke-linecap="round" stroke-linejoin="round"/>
<path d="M47.3982 29.1982L38.2004 26.5L40.9719 30.7127L36.832 38.8421L42.3056 38.7725H50.4814L47.3982 29.1982Z" fill="#F5841F" stroke="#F5841F" stroke-width="0.25" stroke-linecap="round" stroke-linejoin="round"/>
<path d="M18.6269 26.5L9.42919 29.1982L6.36328 38.7725H14.5217L19.9953 38.8421L15.8555 30.7127L18.6269 26.5Z" fill="#F5841F" stroke="#F5841F" stroke-width="0.25" stroke-linecap="round" stroke-linejoin="round"/>
<path d="M31.0988 31.1652L31.6877 20.9641L34.3552 13.7051H22.4727L25.1401 20.9641L25.7291 31.1652L25.9543 34.3682L25.9716 42.2888H30.8563L30.8736 34.3682L31.0988 31.1652Z" fill="#F5841F" stroke="#F5841F" stroke-width="0.25" stroke-linecap="round" stroke-linejoin="round"/>
</svg>
