<svg xmlns="http://www.w3.org/2000/svg" viewBox="0 0 60 60" fill="#2e75e6">
  <rect width="60" height="60" opacity=".1" rx="15"/>
  <path fill-rule="evenodd" d="M11.001 21.9998C11.001 19.2383 13.2396 16.9998 16.001 16.9998H44.001C46.7624 16.9998 49.001 19.2383 49.001 21.9998V37.9998C49.001 40.7612 46.7624 42.9998 44.001 42.9998H16.001C13.2396 42.9998 11.001 40.7612 11.001 37.9998V21.9998ZM16.001 18.9998C14.3441 18.9998 13.001 20.3429 13.001 21.9998V37.9998C13.001 39.6566 14.3441 40.9998 16.001 40.9998H44.001C45.6578 40.9998 47.001 39.6566 47.001 37.9998V21.9998C47.001 20.3429 45.6578 18.9998 44.001 18.9998H16.001ZM22.3912 25.2882C22.0032 25.211 21.6011 25.2506 21.2356 25.402C20.8702 25.5534 20.5578 25.8097 20.338 26.1386C20.1183 26.4675 20.001 26.8542 20.001 27.2498C20.001 27.7802 20.2117 28.2889 20.5868 28.664C20.9618 29.039 21.4705 29.2498 22.001 29.2498C22.3965 29.2498 22.7832 29.1325 23.1121 28.9127C23.441 28.6929 23.6974 28.3806 23.8487 28.0151C24.0001 27.6497 24.0397 27.2475 23.9625 26.8596C23.8854 26.4716 23.6949 26.1152 23.4152 25.8355C23.1355 25.5558 22.7791 25.3654 22.3912 25.2882ZM20.4702 23.5542C21.2011 23.2515 22.0054 23.1723 22.7813 23.3266C23.5573 23.481 24.27 23.8619 24.8294 24.4213C25.3888 24.9807 25.7698 25.6935 25.9241 26.4694C26.0785 27.2453 25.9992 28.0496 25.6965 28.7805C25.3937 29.5114 24.8811 30.1361 24.2233 30.5756C23.5655 31.0152 22.7921 31.2498 22.001 31.2498C20.9401 31.2498 19.9227 30.8283 19.1725 30.0782C18.4224 29.328 18.001 28.3106 18.001 27.2498C18.001 26.4586 18.2356 25.6853 18.6751 25.0275C19.1146 24.3697 19.7393 23.857 20.4702 23.5542ZM31.001 25.9998C31.001 25.4475 31.4487 24.9998 32.001 24.9998H37.001C37.5533 24.9998 38.001 25.4475 38.001 25.9998C38.001 26.552 37.5533 26.9998 37.001 26.9998H32.001C31.4487 26.9998 31.001 26.552 31.001 25.9998ZM40.001 25.9998C40.001 25.4475 40.4487 24.9998 41.001 24.9998H43.001C43.5533 24.9998 44.001 25.4475 44.001 25.9998C44.001 26.552 43.5533 26.9998 43.001 26.9998H41.001C40.4487 26.9998 40.001 26.552 40.001 25.9998ZM31.001 29.9998C31.001 29.4475 31.4487 28.9998 32.001 28.9998H33.001C33.5533 28.9998 34.001 29.4475 34.001 29.9998C34.001 30.552 33.5533 30.9998 33.001 30.9998H32.001C31.4487 30.9998 31.001 30.552 31.001 29.9998ZM36.001 29.9998C36.001 29.4475 36.4487 28.9998 37.001 28.9998H43.001C43.5533 28.9998 44.001 29.4475 44.001 29.9998C44.001 30.552 43.5533 30.9998 43.001 30.9998H37.001C36.4487 30.9998 36.001 30.552 36.001 29.9998ZM18.9996 34.5466C18.2123 35.0385 18.001 35.5238 18.001 35.7498C18.001 36.302 17.5533 36.7498 17.001 36.7498C16.4487 36.7498 16.001 36.302 16.001 35.7498C16.001 34.5057 16.9146 33.491 17.9398 32.8504C19.0139 32.1793 20.4494 31.7498 22.001 31.7498C23.5526 31.7498 24.988 32.1793 26.0621 32.8504C27.0873 33.491 28.001 34.5057 28.001 35.7498C28.001 36.302 27.5533 36.7498 27.001 36.7498C26.4487 36.7498 26.001 36.302 26.001 35.7498C26.001 35.5238 25.7896 35.0385 25.0023 34.5466C24.2639 34.0852 23.1994 33.7498 22.001 33.7498C20.8026 33.7498 19.738 34.0852 18.9996 34.5466ZM31.001 33.9998C31.001 33.4475 31.4487 32.9998 32.001 32.9998H38.001C38.5533 32.9998 39.001 33.4475 39.001 33.9998C39.001 34.552 38.5533 34.9998 38.001 34.9998H32.001C31.4487 34.9998 31.001 34.552 31.001 33.9998Z"/>
</svg>
