<?xml version="1.0" encoding="UTF-8" standalone="no" ?>
<!DOCTYPE svg PUBLIC "-//W3C//DTD SVG 1.1//EN" "http://www.w3.org/Graphics/SVG/1.1/DTD/svg11.dtd">
<svg xmlns="http://www.w3.org/2000/svg" xmlns:xlink="http://www.w3.org/1999/xlink" version="1.1" width="640" height="640" viewBox="0 0 640 640" xml:space="preserve">
<desc>Created with Fabric.js 4.6.0</desc>
<defs>
</defs>
<g transform="matrix(1 0 0 1 575 320)" id="ppK6DwMDq1OpSYvIrdxfM"  >
<path style="stroke: rgb(113,38,154); stroke-width: 0; stroke-dasharray: none; stroke-linecap: butt; stroke-dashoffset: 0; stroke-linejoin: miter; stroke-miterlimit: 4; fill: rgb(0,145,234); fill-rule: nonzero; opacity: 1;" vector-effect="non-scaling-stroke"  transform=" translate(-25, -280)" d="M 0 0 L 50 0 L 50 560 L 0 560 z" stroke-linecap="round" />
</g>
<g transform="matrix(1 0 0 1 320 65)" id="t3mP75TgpU0RxenouX8ar"  >
<path style="stroke: rgb(113,38,154); stroke-width: 0; stroke-dasharray: none; stroke-linecap: butt; stroke-dashoffset: 0; stroke-linejoin: miter; stroke-miterlimit: 4; fill: rgb(0,145,234); fill-rule: nonzero; opacity: 1;" vector-effect="non-scaling-stroke"  transform=" translate(-280, -25)" d="M 0 0 L 560 0 L 560 50 L 0 50 z" stroke-linecap="round" />
</g>
<g transform="matrix(1 0 0 1 65 370)" id="V13D_uOBF9LbV-HogxMSj"  >
<path style="stroke: rgb(113,38,154); stroke-width: 0; stroke-dasharray: none; stroke-linecap: butt; stroke-dashoffset: 0; stroke-linejoin: miter; stroke-miterlimit: 4; fill: rgb(0,145,234); fill-rule: nonzero; opacity: 1;" vector-effect="non-scaling-stroke"  transform=" translate(-25, -230)" d="M 0 0 L 50 0 L 50 460 L 0 460 z" stroke-linecap="round" />
</g>
<g transform="matrix(1 0 0 1 220 370)" id="v84CShMJGBLs4I8n2D8Qz"  >
<path style="stroke: rgb(113,38,154); stroke-width: 0; stroke-dasharray: none; stroke-linecap: butt; stroke-dashoffset: 0; stroke-linejoin: miter; stroke-miterlimit: 4; fill: rgb(0,145,234); fill-rule: nonzero; opacity: 1;" vector-effect="non-scaling-stroke"  transform=" translate(-25, -230)" d="M 0 0 L 50 0 L 50 460 L 0 460 z" stroke-linecap="round" />
</g>
<g transform="matrix(1 0 0 1 320 265)" id="Ez-Wind7stswoSR8QWCft"  >
<path style="stroke: rgb(113,38,154); stroke-width: 0; stroke-dasharray: none; stroke-linecap: butt; stroke-dashoffset: 0; stroke-linejoin: miter; stroke-miterlimit: 4; fill: rgb(0,145,234); fill-rule: nonzero; opacity: 1;" vector-effect="non-scaling-stroke"  transform=" translate(-25, -125)" d="M 0 0 L 50 0 L 50 250 L 0 250 z" stroke-linecap="round" />
</g>
<g transform="matrix(1 0 0 1 475 467.5)" id="lNT_Fv2i4dQPU2yewkSY9"  >
<path style="stroke: rgb(113,38,154); stroke-width: 0; stroke-dasharray: none; stroke-linecap: butt; stroke-dashoffset: 0; stroke-linejoin: miter; stroke-miterlimit: 4; fill: rgb(0,145,234); fill-rule: nonzero; opacity: 1;" vector-effect="non-scaling-stroke"  transform=" translate(-25, -127.5)" d="M 0 0 L 50 0 L 50 255 L 0 255 z" stroke-linecap="round" />
</g>
<g transform="matrix(1 0 0 1 142.5 365)" id="clte7PTsk4ARu4bZUwNEz"  >
<path style="stroke: rgb(113,38,154); stroke-width: 0; stroke-dasharray: none; stroke-linecap: butt; stroke-dashoffset: 0; stroke-linejoin: miter; stroke-miterlimit: 4; fill: rgb(0,145,234); fill-rule: nonzero; opacity: 1;" vector-effect="non-scaling-stroke"  transform=" translate(-102.5, -25)" d="M 0 0 L 205 0 L 205 50 L 0 50 z" stroke-linecap="round" />
</g>
<g transform="matrix(1 0 0 1 397.5 365)" id="VUmsQNqeJc-h2rW9-7pRY"  >
<path style="stroke: rgb(113,38,154); stroke-width: 0; stroke-dasharray: none; stroke-linecap: butt; stroke-dashoffset: 0; stroke-linejoin: miter; stroke-miterlimit: 4; fill: rgb(0,145,234); fill-rule: nonzero; opacity: 1;" vector-effect="non-scaling-stroke"  transform=" translate(-102.5, -25)" d="M 0 0 L 205 0 L 205 50 L 0 50 z" stroke-linecap="round" />
</g>
<g transform="matrix(1 0 0 1 397.5 165)" id="D_tG79Sk2tfnf92UEpicY"  >
<path style="stroke: rgb(113,38,154); stroke-width: 0; stroke-dasharray: none; stroke-linecap: butt; stroke-dashoffset: 0; stroke-linejoin: miter; stroke-miterlimit: 4; fill: rgb(0,145,234); fill-rule: nonzero; opacity: 1;" vector-effect="non-scaling-stroke"  transform=" translate(-102.5, -25)" d="M 0 0 L 205 0 L 205 50 L 0 50 z" stroke-linecap="round" />
</g>
<g transform="matrix(1 0 0 1 397.5 575)" id="yvap8YCHLwYnGPORxUgiA"  >
<path style="stroke: rgb(113,38,154); stroke-width: 0; stroke-dasharray: none; stroke-linecap: butt; stroke-dashoffset: 0; stroke-linejoin: miter; stroke-miterlimit: 4; fill: rgb(0,145,234); fill-rule: nonzero; opacity: 1;" vector-effect="non-scaling-stroke"  transform=" translate(-102.5, -25)" d="M 0 0 L 205 0 L 205 50 L 0 50 z" stroke-linecap="round" />
</g>
</svg>